{"title":"Straponcum.com - 1.Collage Study Break","uid":7456244,"size":664549107,"categoryP":"porn","categoryS":"movie_clips","magnet":"?xt=urn:btih:a5896b04ead15d8089008620418e717ed3a13790&amp;dn=Straponcum.com+-+1.Collage+Study+Break&amp;tr=udp%3A%2F%2Ftracker.openbittorrent.com%3A80&amp;tr=udp%3A%2F%2Fopen.demonii.com%3A1337&amp;tr=udp%3A%2F%2Ftracker.coppersurfer.tk%3A6969&amp;tr=udp%3A%2F%2Fexodus.desync.com%3A6969","seeders":1,"leechers":2,"uploader":"pspxxx","files":1,"time":1342671694,"description":"1.Collage Study Break\n\nTwo collage girls decide to take a break after having a day of studying.\nHanging out in Mom's room when she is away on business, the girls find\nMom's strap on. After Putting on a pair of Mom's sexy black pantyhose,\nthe girls decide to put the strap on to the test.\nStudying can be much more fun if there is a strap on involved!\n\nWhat is Strapon Cum?\nHot, juicy young girls in sexy, kinky outfits play and fuck each other with\nbig strapon that squirts loads of hot gooey cum!! Dungeons &amp; slave training!\nGirl-on-girl bondage! Hours of young girls begging for mercy...and more!\n\nScreens:\n &lt;a href=&quot;\nhttp://bayimg.com/pAAiiaaEC&quot; rel=&quot;nofollow&quot; target=&quot;_NEW&quot;&gt;\nhttp://bayimg.com/pAAiiaaEC&lt;/a&gt;\n\nStraponCum.com - 1.Collage Study Break\n\nFormat                                   : Windows Media\nFile size                                : 634 MiB\nDuration                                 : 21mn 2s\nOverall bit rate mode                    : Constant\nOverall bit rate                         : 4 212 Kbps\nMaximum Overall bit rate                 : 4 229 Kbps\nPerformer                                : www.straponcum.com Â© 2008\nEncoded date                             : UTC 2008-06-19 08:41:02.385\nSfOriginalFPS                            : 250000\n\nVideo\nID                                       : 2\nFormat                                   : VC-1\nFormat profile                           : MP@HL\nCodec ID                                 : WMV3\nCodec ID/Info                            : Windows Media Video 9\nCodec ID/Hint                            : WMV3\nDescription of the codec                 : Windows Media Video 9 - Professional\nDuration                                 : 21mn 2s\nBit rate mode                            : Constant\nBit rate                                 : 4 146 Kbps\nWidth                                    : 960 pixels\nHeight                                   : 540 pixels\nDisplay aspect ratio                     : 16:9\nFrame rate                               : 25.000 fps\nBit depth                                : 8 bits\nScan type                                : Progressive\nCompression mode                         : Lossy\nBits/(Pixel*Frame)                       : 0.320\nStream size                              : 624 MiB (98%)\nLanguage                                 : English (US)\n\nAudio\nID                                       : 1\nFormat                                   : WMA\nFormat version                           : Version 2\nCodec ID                                 : 161\nCodec ID/Info                            : Windows Media Audio\nDescription of the codec                 : Windows Media Audio 9.2 -  48 kbps, 44 kHz, stereo (A/V) 1-pass CBR\nDuration                                 : 21mn 2s\nBit rate mode                            : Constant\nBit rate                                 : 48.0 Kbps\nChannel(s)                               : 2 channels\nSampling rate                            : 44.1 KHz\nBit depth                                : 16 bits\nStream size                              : 7.23 MiB (1%)\nLanguage                                 : English (US)","torrent":{"xt":"urn:btih:a5896b04ead15d8089008620418e717ed3a13790","amp;dn":"Straponcum.com+-+1.Collage+Study+Break","amp;tr":["udp%3A%2F%2Ftracker.openbittorrent.com%3A80","udp%3A%2F%2Fopen.demonii.com%3A1337","udp%3A%2F%2Ftracker.coppersurfer.tk%3A6969","udp%3A%2F%2Fexodus.desync.com%3A6969"],"infoHash":"a5896b04ead15d8089008620418e717ed3a13790","infoHashBuffer":{"type":"Buffer","data":[165,137,107,4,234,209,93,128,137,0,134,32,65,142,113,126,211,161,55,144]},"announce":[],"urlList":[]}}